<svg width="11" height="10" viewBox="0 0 11 10" fill="none" xmlns="http://www.w3.org/2000/svg">
<path d="M5.79087 9.8946C8.5188 9.8946 10.7378 7.67523 10.7378 4.9473C10.7378 2.21937 8.5188 0 5.79087 0C3.06294 0 0.843567 2.21937 0.843567 4.9473C0.843567 7.67523 3.06294 9.8946 5.79087 9.8946ZM5.20497 2.03931V1.90494C5.20497 1.58114 5.46706 1.31905 5.79087 1.31905C6.11428 1.31905 6.37676 1.58114 6.37676 1.90494V2.04009C7.07398 2.18969 7.59855 2.81074 7.59855 3.55209C7.59855 3.8755 7.33607 4.13798 7.01266 4.13798C6.68885 4.13798 6.42676 3.8755 6.42676 3.55209C6.42676 3.34546 6.25841 3.17712 6.05179 3.17712H5.52643C5.31981 3.17712 5.15146 3.34546 5.15146 3.55209C5.15146 3.67044 5.2081 3.78293 5.3034 3.85324L5.79087 4.21415L6.97516 5.09065C7.36419 5.37852 7.59855 5.83903 7.60168 6.32337V6.32884C7.60441 6.74209 7.44622 7.13191 7.15561 7.42603C6.94 7.64437 6.67049 7.79085 6.37676 7.85256V7.98966C6.37676 8.31347 6.11428 8.57556 5.79087 8.57556C5.46706 8.57556 5.20497 8.31347 5.20497 7.98966V7.85451C4.91906 7.79358 4.65618 7.65297 4.4437 7.44283C4.14958 7.15261 3.98631 6.76514 3.98397 6.35189C3.98201 6.02847 4.24254 5.76443 4.56596 5.76248H4.56986C4.89171 5.76248 5.1538 6.02261 5.15576 6.34486C5.15654 6.54707 5.31922 6.71749 5.53268 6.71749C5.85641 6.71553 5.73583 6.71624 6.05726 6.71436C6.26521 6.71272 6.43149 6.54394 6.42989 6.33665V6.33119C6.4291 6.21401 6.37247 6.1023 6.27794 6.03238L5.79087 5.67186L4.60619 4.79536C4.21403 4.50476 3.97967 4.03994 3.97967 3.55209C3.97967 2.80917 4.5058 2.18773 5.20497 2.03931Z" fill="#439F90"/>
</svg>
