<svg width="90" height="90" viewBox="0 0 90 90" fill="none" xmlns="http://www.w3.org/2000/svg">
<circle cx="45" cy="45" r="45" fill="#7264D6"/>
<path d="M26.625 33C25.1821 33 24 34.2008 24 35.6667V54.3333C24 55.7991 25.1821 57 26.625 57H63.375C64.8179 57 66 55.7991 66 54.3333V35.6667C66 34.2008 64.8179 33 63.375 33H26.625ZM26.625 34.3333H63.375C64.1135 34.3333 64.6875 34.9164 64.6875 35.6667V54.3333C64.6875 55.0835 64.1135 55.6667 63.375 55.6667H26.625C25.8865 55.6667 25.3125 55.0835 25.3125 54.3333V35.6667C25.3125 34.9164 25.8865 34.3333 26.625 34.3333ZM30.5625 35.6667V36.3333C30.5625 38.1821 29.1012 39.6667 27.2812 39.6667H26.625V50.3333H27.2812C29.1012 50.3333 30.5625 51.8177 30.5625 53.6667V54.3333H59.4375V53.6667C59.4375 51.8177 60.8988 50.3333 62.7188 50.3333H63.375V39.6667H62.7188C60.8988 39.6667 59.4375 38.1821 59.4375 36.3333V35.6667H30.5625ZM31.7417 37H40.2729C37.6007 38.6337 35.8125 41.6057 35.8125 45C35.8125 48.3951 37.6007 51.3667 40.2729 53H31.7417C31.4429 50.9852 29.9208 49.439 27.9375 49.1354V40.8646C29.9208 40.561 31.4429 39.0147 31.7417 37ZM44.9744 37C49.3389 37 52.875 40.58 52.875 45C52.875 49.4216 49.3389 53 44.9744 53C40.6084 53 37.125 49.4264 37.125 45C37.125 40.5752 40.6084 37 44.9744 37ZM49.6681 37H58.2583C58.5571 39.0147 60.0792 40.561 62.0625 40.8646V49.1354C60.0792 49.439 58.5571 50.9852 58.2583 53H49.6937C52.3789 51.3671 54.1875 48.3965 54.1875 45C54.1878 44.9107 54.1703 44.822 54.1362 44.7396C54.0406 41.4546 52.2726 38.5913 49.6681 37ZM41.7546 39.6667V39.6797H41.7239V41.013H43.0723C44.2984 41.013 44.9196 41.6027 45.1436 42.3333H41.7546V43.6667H45.1436C44.9196 44.3975 44.2984 44.987 43.0723 44.987H41.7239V46.3203H42.0751L46.1228 50.3333L47.038 49.3802L43.8721 46.2396C45.3101 45.9438 46.2351 44.8607 46.4894 43.6667H48.2812V42.3333H46.4894C46.3877 41.8539 46.1696 41.3999 45.8613 41H48.2812V39.6667H41.7546ZM31.875 43.6667C31.1579 43.6667 30.5625 44.2715 30.5625 45C30.5625 45.7284 31.1579 46.3333 31.875 46.3333C32.5921 46.3333 33.1875 45.7284 33.1875 45C33.1875 44.2715 32.5921 43.6667 31.875 43.6667ZM58.125 43.6667C57.4079 43.6667 56.8125 44.2715 56.8125 45C56.8125 45.7284 57.4079 46.3333 58.125 46.3333C58.8421 46.3333 59.4375 45.7284 59.4375 45C59.4375 44.2715 58.8421 43.6667 58.125 43.6667Z" fill="white"/>
</svg>
